<?xml version="1.0" encoding="UTF-8"?>
<svg width="120" height="80" viewBox="0 0 120 80" fill="none" xmlns="http://www.w3.org/2000/svg">
  <rect width="120" height="80" rx="8" fill="#F5F5F5"/>
  <path d="M30 40C30 34.4772 34.4772 30 40 30H80C85.5228 30 90 34.4772 90 40C90 45.5228 85.5228 50 80 50H40C34.4772 50 30 45.5228 30 40Z" fill="#E0E0E0"/>
  <path d="M40 35C37.2386 35 35 37.2386 35 40C35 42.7614 37.2386 45 40 45C42.7614 45 45 42.7614 45 40C45 37.2386 42.7614 35 40 35Z" fill="#9E9E9E"/>
  <path d="M80 35C77.2386 35 75 37.2386 75 40C75 42.7614 77.2386 45 80 45C82.7614 45 85 42.7614 85 40C85 37.2386 82.7614 35 80 35Z" fill="#9E9E9E"/>
  <path d="M60 35C57.2386 35 55 37.2386 55 40C55 42.7614 57.2386 45 60 45C62.7614 45 65 42.7614 65 40C65 37.2386 62.7614 35 60 35Z" fill="#9E9E9E"/>
  <text x="60" y="65" font-family="Arial" font-size="12" font-weight="bold" text-anchor="middle" fill="#616161">ISO 9001</text>
</svg>
