<?xml version="1.0" encoding="UTF-8"?>
<!DOCTYPE svg PUBLIC "-//W3C//DTD SVG 1.1//EN" "http://www.w3.org/Graphics/SVG/1.1/DTD/svg11.dtd">
<svg xmlns="http://www.w3.org/2000/svg" version="1.1" width="1200px" height="457px" style="shape-rendering:geometricPrecision; text-rendering:geometricPrecision; image-rendering:optimizeQuality; fill-rule:evenodd; clip-rule:evenodd" xmlns:xlink="http://www.w3.org/1999/xlink">
<g><path style="opacity:0.744" fill="#696b6d" d="M 1151.5,-0.5 C 1157.5,-0.5 1163.5,-0.5 1169.5,-0.5C 1183.67,4.33744 1193.67,13.6708 1199.5,27.5C 1199.5,34.8333 1199.5,42.1667 1199.5,49.5C 1190.6,71.6223 1174.27,80.789 1150.5,77C 1132.34,70.8363 1122.34,58.1696 1120.5,39C 1122.14,18.8715 1132.48,5.70485 1151.5,-0.5 Z M 1154.5,6.5 C 1177.34,5.50275 1190.34,16.3361 1193.5,39C 1193.19,46.9285 1190.36,53.7619 1185,59.5C 1181.22,53.3883 1177.05,47.5549 1172.5,42C 1183.8,36.0165 1185.46,28.0165 1177.5,18C 1175.61,17.0266 1173.61,16.3599 1171.5,16C 1162.83,15.3333 1154.17,15.3333 1145.5,16C 1144.24,31.7803 1144.24,47.6136 1145.5,63.5C 1147.83,63.5 1150.17,63.5 1152.5,63.5C 1152.5,56.5 1152.5,49.5 1152.5,42.5C 1156.31,42.1632 1159.97,42.6632 1163.5,44C 1169.17,51 1174.83,58 1180.5,65C 1162.91,74.4611 1147.41,71.9611 1134,57.5C 1124.91,40.9312 1127.08,26.0979 1140.5,13C 1145.03,10.3327 1149.7,8.16604 1154.5,6.5 Z M 1152.5,22.5 C 1159.32,22.0082 1165.99,22.6749 1172.5,24.5C 1175.73,29.1498 1174.73,32.6498 1169.5,35C 1163.85,36.5683 1158.18,36.7349 1152.5,35.5C 1152.5,31.1667 1152.5,26.8333 1152.5,22.5 Z"/></g>
<g><path style="opacity:0.968" fill="#ec1c23" d="M 781.5,1.5 C 809.5,1.5 837.5,1.5 865.5,1.5C 865.667,24.8357 865.5,48.169 865,71.5C 851.24,72.1625 837.406,72.4958 823.5,72.5C 809.594,72.4958 795.76,72.1625 782,71.5C 781.5,48.169 781.333,24.8357 781.5,1.5 Z"/></g>
<g><path style="opacity:0.983" fill="#ec1c23" d="M -0.5,27.5 C 56.1676,27.3333 112.834,27.5 169.5,28C 191.177,28.083 211.177,33.7497 229.5,45C 251.81,65.2557 260.643,90.4223 256,120.5C 249.45,157.052 227.95,179.219 191.5,187C 204.495,191.32 215.328,198.82 224,209.5C 226.615,213.783 229.615,217.783 233,221.5C 248.755,251.343 264.255,281.343 279.5,311.5C 267.206,312.85 254.873,313.517 242.5,313.5C 225.827,312.469 209.161,312.469 192.5,313.5C 188.098,313.515 183.765,313.015 179.5,312C 162.032,281.567 145.198,250.734 129,219.5C 125.106,212.552 119.94,206.718 113.5,202C 105.454,198.952 97.121,197.452 88.5,197.5C 88.5,235.833 88.5,274.167 88.5,312.5C 58.8326,313.786 29.1659,313.786 -0.5,312.5C -0.5,217.5 -0.5,122.5 -0.5,27.5 Z M 89.5,86.5 C 105.837,86.3334 122.17,86.5001 138.5,87C 150.277,87.4612 159.111,92.6278 165,102.5C 169.147,113.745 167.314,123.911 159.5,133C 150.904,138.152 141.571,141.152 131.5,142C 117.171,142.5 102.837,142.667 88.5,142.5C 88.1802,123.757 88.5135,105.09 89.5,86.5 Z"/></g>
<g><path style="opacity:0.972" fill="#ec1c23" d="M 362.5,73.5 C 365.898,73.1796 369.232,73.513 372.5,74.5C 390.42,100.675 408.587,126.675 427,152.5C 427.5,128.169 427.667,103.836 427.5,79.5C 464.02,91.849 489.854,115.849 505,151.5C 521.557,197.474 515.557,240.14 487,279.5C 464.818,306.514 436.318,322.514 401.5,327.5C 382.679,301.204 363.846,274.871 345,248.5C 344.783,272.519 344.283,296.519 343.5,320.5C 301.769,305.265 274.602,276.265 262,233.5C 248.738,169.881 269.571,121.048 324.5,87C 336.746,80.9759 349.412,76.4759 362.5,73.5 Z M 344.5,157.5 C 372.192,157.201 399.859,157.534 427.5,158.5C 427.5,186.5 427.5,214.5 427.5,242.5C 399.833,242.5 372.167,242.5 344.5,242.5C 344.5,214.167 344.5,185.833 344.5,157.5 Z"/></g>
<g><path style="opacity:0.977" fill="#ec1c23" d="M 657.5,83.5 C 683.59,81.8554 707.59,88.022 729.5,102C 750.563,118.623 761.729,140.456 763,167.5C 763.667,216.833 763.667,266.167 763,315.5C 735.241,316.495 707.407,316.828 679.5,316.5C 679.971,268.8 679.471,221.133 678,173.5C 674.444,159.109 665.277,151.443 650.5,150.5C 641.036,150.825 632.036,152.992 623.5,157C 618.123,160.043 614.623,164.543 613,170.5C 611.696,218.801 611.029,267.135 611,315.5C 583.241,316.495 555.407,316.828 527.5,316.5C 527.5,239.833 527.5,163.167 527.5,86.5C 554.5,86.5 581.5,86.5 608.5,86.5C 608.335,89.5184 608.502,92.5184 609,95.5C 609.414,95.9574 609.914,96.2907 610.5,96.5C 625.471,89.177 641.138,84.8437 657.5,83.5 Z"/></g>
<g><path style="opacity:0.979" fill="#ec1c23" d="M 781.5,86.5 C 809.5,86.5 837.5,86.5 865.5,86.5C 865.5,163.167 865.5,239.833 865.5,316.5C 837.5,316.5 809.5,316.5 781.5,316.5C 781.5,239.833 781.5,163.167 781.5,86.5 Z"/></g>
<g><path style="opacity:0.974" fill="#ec1c23" d="M 880.5,86.5 C 913.507,86.1668 946.507,86.5001 979.5,87.5C 989.166,104.169 999.332,120.503 1010,136.5C 1021.12,120.423 1031.62,103.923 1041.5,87C 1074.5,86.3333 1107.5,86.3333 1140.5,87C 1140.83,87.3333 1141.17,87.6667 1141.5,88C 1136.88,94.7477 1132.38,101.581 1128,108.5C 1112.25,131.01 1096.25,153.343 1080,175.5C 1075.37,182.599 1070.87,189.766 1066.5,197C 1093.29,236.079 1120.46,274.912 1148,313.5C 1148.48,314.448 1148.65,315.448 1148.5,316.5C 1114.81,316.91 1081.15,316.41 1047.5,315C 1034.88,295.585 1022.38,276.085 1010,256.5C 997.833,276 985.667,295.5 973.5,315C 939.17,315.684 904.837,316.184 870.5,316.5C 870.351,315.448 870.517,314.448 871,313.5C 899.36,274.64 927.527,235.64 955.5,196.5C 931,161.5 906.5,126.5 882,91.5C 880.991,89.9751 880.491,88.3084 880.5,86.5 Z"/></g>
<g><path style="opacity:0.812" fill="#696b6d" d="M 672.5,362.5 C 699.108,361.106 714.441,373.44 718.5,399.5C 717.481,410.063 713.814,419.563 707.5,428C 710.358,431.358 713.025,434.858 715.5,438.5C 714.312,439.84 712.812,440.507 711,440.5C 705.516,439.953 700.683,437.953 696.5,434.5C 675.336,442.259 658.169,437.259 645,419.5C 633.871,390.428 643.038,371.428 672.5,362.5 Z M 672.5,374.5 C 691.803,372.63 703.136,381.13 706.5,400C 706.379,407.071 703.712,412.904 698.5,417.5C 695.314,414.479 691.98,411.646 688.5,409C 684.249,407.805 679.915,407.305 675.5,407.5C 678.782,413.972 683.115,419.805 688.5,425C 671.644,429.155 659.81,423.322 653,407.5C 650.242,390.807 656.742,379.807 672.5,374.5 Z"/></g>
<g><path style="opacity:0.825" fill="#696b6d" d="M 931.5,363.5 C 934.833,363.5 938.167,363.5 941.5,363.5C 942.779,387.517 942.779,411.517 941.5,435.5C 938.167,435.5 934.833,435.5 931.5,435.5C 931.5,411.5 931.5,387.5 931.5,363.5 Z"/></g>
<g><path style="opacity:0.794" fill="#696b6d" d="M -0.5,421.5 C -0.5,407.167 -0.5,392.833 -0.5,378.5C 0.486123,374.03 0.819456,369.363 0.5,364.5C 9.96765,363.989 19.301,364.822 28.5,367C 41.396,373.321 44.896,383.154 39,396.5C 31.5164,404.166 22.3498,407.832 11.5,407.5C 11.5,416.833 11.5,426.167 11.5,435.5C 7.83333,435.5 4.16667,435.5 0.5,435.5C 0.819456,430.637 0.486123,425.97 -0.5,421.5 Z M 11.5,375.5 C 16.248,375.275 20.9147,375.775 25.5,377C 31.6587,382.417 31.992,388.083 26.5,394C 21.6895,395.95 16.6895,397.116 11.5,397.5C 11.5,390.167 11.5,382.833 11.5,375.5 Z"/></g>
<g><path style="opacity:0.763" fill="#696b6d" d="M 344.5,367.5 C 351.304,366.221 355.304,368.888 356.5,375.5C 356.096,380.737 353.263,383.403 348,383.5C 345.739,383.561 343.739,382.894 342,381.5C 339.425,376.034 340.258,371.367 344.5,367.5 Z"/></g>
<g><path style="opacity:0.768" fill="#696b6d" d="M 987.5,367.5 C 994.283,366.213 998.283,368.88 999.5,375.5C 997.316,383.568 992.482,385.568 985,381.5C 982.425,376.034 983.258,371.367 987.5,367.5 Z"/></g>
<g><path style="opacity:0.82" fill="#696b6d" d="M 1043.5,375.5 C 1046.83,375.5 1050.17,375.5 1053.5,375.5C 1053.33,379.846 1053.5,384.179 1054,388.5C 1056.74,389.282 1059.57,389.782 1062.5,390C 1063.23,393.153 1062.9,396.32 1061.5,399.5C 1058.92,400.393 1056.25,400.726 1053.5,400.5C 1053.5,412.167 1053.5,423.833 1053.5,435.5C 1049.83,435.5 1046.17,435.5 1042.5,435.5C 1042.5,423.5 1042.5,411.5 1042.5,399.5C 1040.41,399.682 1038.41,399.348 1036.5,398.5C 1035.52,395.572 1035.18,392.572 1035.5,389.5C 1037.79,389.756 1039.96,389.423 1042,388.5C 1042.46,384.152 1042.96,379.819 1043.5,375.5 Z"/></g>
<g><path style="opacity:0.794" fill="#696b6d" d="M 107.5,387.5 C 109.167,387.5 110.833,387.5 112.5,387.5C 112.475,390.96 111.808,394.294 110.5,397.5C 105.511,398.989 101.011,401.322 97,404.5C 95.5738,414.754 95.0738,425.088 95.5,435.5C 91.8333,435.5 88.1667,435.5 84.5,435.5C 84.5,420.167 84.5,404.833 84.5,389.5C 87.8333,389.5 91.1667,389.5 94.5,389.5C 94.3379,391.527 94.5045,393.527 95,395.5C 98.3779,391.406 102.545,388.739 107.5,387.5 Z"/></g>
<g><path style="opacity:0.787" fill="#696b6d" d="M 166.5,388.5 C 186.483,386.486 196.816,395.486 197.5,415.5C 184.816,415.168 172.149,415.501 159.5,416.5C 166.582,428.063 175.582,429.563 186.5,421C 189.642,421.088 192.142,422.588 194,425.5C 193.454,428.093 191.954,430.26 189.5,432C 178.207,439.556 167.207,439.223 156.5,431C 146.958,420.154 146.124,408.654 154,396.5C 157.586,392.714 161.753,390.047 166.5,388.5 Z M 169.5,398.5 C 175.682,397.924 180.682,400.091 184.5,405C 176.833,405.667 169.167,405.667 161.5,405C 163.774,402.214 166.44,400.047 169.5,398.5 Z"/></g>
<g><path style="opacity:0.823" fill="#696b6d" d="M 254.5,388.5 C 258.182,388.335 261.848,388.501 265.5,389C 268,390.833 270.5,392.667 273,394.5C 275.748,392.542 278.582,390.709 281.5,389C 288.637,386.996 294.47,388.829 299,394.5C 300.446,408.093 300.946,421.76 300.5,435.5C 297.167,435.5 293.833,435.5 290.5,435.5C 290.774,424.166 290.274,412.832 289,401.5C 282.817,396.765 278.151,398.098 275,405.5C 273.697,415.523 273.197,425.523 273.5,435.5C 270.167,435.5 266.833,435.5 263.5,435.5C 263.861,423.786 263.361,412.119 262,400.5C 255.449,396.817 250.782,398.483 248,405.5C 247.5,415.494 247.334,425.494 247.5,435.5C 243.833,435.5 240.167,435.5 236.5,435.5C 236.5,420.167 236.5,404.833 236.5,389.5C 239.898,389.18 243.232,389.513 246.5,390.5C 247,391.5 247.5,392.5 248,393.5C 250.326,391.934 252.492,390.268 254.5,388.5 Z"/></g>
<g><path style="opacity:0.823" fill="#696b6d" d="M 493.5,388.5 C 500.757,387.02 506.757,389.02 511.5,394.5C 514.5,392.667 517.5,390.833 520.5,389C 527.637,386.996 533.47,388.829 538,394.5C 539.446,408.093 539.946,421.76 539.5,435.5C 536.167,435.5 532.833,435.5 529.5,435.5C 528.562,423.538 528.228,411.538 528.5,399.5C 524.77,398.011 521.103,398.178 517.5,400C 516.299,400.903 515.465,402.069 515,403.5C 513.574,408.225 512.74,413.058 512.5,418C 513.654,423.858 513.654,429.691 512.5,435.5C 509.167,435.5 505.833,435.5 502.5,435.5C 502.666,425.828 502.5,416.161 502,406.5C 501.392,398.777 497.559,396.611 490.5,400C 488.232,401.558 487.066,403.724 487,406.5C 486.5,416.161 486.334,425.828 486.5,435.5C 482.833,435.5 479.167,435.5 475.5,435.5C 475.5,420.167 475.5,404.833 475.5,389.5C 478.898,389.18 482.232,389.513 485.5,390.5C 486,391.5 486.5,392.5 487,393.5C 488.965,391.45 491.132,389.783 493.5,388.5 Z"/></g>
<g><path style="opacity:0.811" fill="#696b6d" d="M 853.5,388.5 C 861.934,387.145 869.101,389.478 875,395.5C 875.813,393.564 876.313,391.564 876.5,389.5C 879.833,389.5 883.167,389.5 886.5,389.5C 886.5,404.833 886.5,420.167 886.5,435.5C 883.167,435.5 879.833,435.5 876.5,435.5C 876.313,433.436 875.813,431.436 875,429.5C 866.401,437.421 856.901,438.587 846.5,433C 837.12,423.377 834.953,412.211 840,399.5C 843.244,394.07 847.744,390.403 853.5,388.5 Z M 860.5,398.5 C 874.481,400.139 878.981,407.472 874,420.5C 866.333,428.5 858.667,428.5 851,420.5C 846.802,409.902 849.969,402.568 860.5,398.5 Z"/></g>
<g><path style="opacity:0.807" fill="#696b6d" d="M 342.5,389.5 C 346.167,389.5 349.833,389.5 353.5,389.5C 353.5,404.833 353.5,420.167 353.5,435.5C 349.833,435.5 346.167,435.5 342.5,435.5C 342.5,420.167 342.5,404.833 342.5,389.5 Z"/></g>
<g><path style="opacity:0.829" fill="#696b6d" d="M 395.5,389.5 C 399.167,389.5 402.833,389.5 406.5,389.5C 406.094,400.564 406.594,411.564 408,422.5C 414.074,428.152 419.407,427.485 424,420.5C 425.353,410.214 425.519,399.881 424.5,389.5C 428.167,389.5 431.833,389.5 435.5,389.5C 435.667,400.838 435.5,412.172 435,423.5C 431.557,432.469 425.057,436.802 415.5,436.5C 407.115,437.225 400.948,433.891 397,426.5C 395.561,414.242 395.061,401.909 395.5,389.5 Z"/></g>
<g><path style="opacity:0.823" fill="#696b6d" d="M 757.5,389.5 C 760.833,389.5 764.167,389.5 767.5,389.5C 767.196,399.878 767.696,410.211 769,420.5C 773.881,428.113 779.214,428.446 785,421.5C 786.375,410.889 786.875,400.222 786.5,389.5C 790.167,389.5 793.833,389.5 797.5,389.5C 797.915,401.562 797.415,413.562 796,425.5C 792.127,433.274 785.794,436.94 777,436.5C 768.736,437.039 762.736,433.705 759,426.5C 756.277,414.27 755.777,401.937 757.5,389.5 Z"/></g>
<g><path style="opacity:0.813" fill="#696b6d" d="M 985.5,389.5 C 989.167,389.5 992.833,389.5 996.5,389.5C 996.5,404.833 996.5,420.167 996.5,435.5C 992.833,435.5 989.167,435.5 985.5,435.5C 985.5,420.167 985.5,404.833 985.5,389.5 Z"/></g>
<g><path style="opacity:0.799" fill="#696b6d" d="M 1115.5,456.5 C 1112.17,456.5 1108.83,456.5 1105.5,456.5C 1109.83,445.834 1114.17,435.167 1118.5,424.5C 1118.42,422.701 1117.92,421.034 1117,419.5C 1111.42,412.008 1106.09,404.341 1101,396.5C 1099.59,394.35 1098.76,392.016 1098.5,389.5C 1102.55,389.176 1106.55,389.509 1110.5,390.5C 1115.14,397.638 1119.97,404.638 1125,411.5C 1128.9,404.827 1132.23,397.827 1135,390.5C 1138.73,389.54 1142.56,389.207 1146.5,389.5C 1141.24,403.366 1135.4,417.033 1129,430.5C 1124.96,439.49 1120.46,448.157 1115.5,456.5 Z"/></g>
</svg>
